<svg width="93" height="93" viewBox="0 0 93 93" fill="none" xmlns="http://www.w3.org/2000/svg">
<g clip-path="url(#clip0_29_8)">
<path d="M33.5638 91.628C32.2171 91.628 30.8711 91.2121 29.7202 90.3796C29.7124 90.3739 29.7039 90.3682 29.6961 90.3625L23.2486 85.6171L16.8003 90.3625C16.7925 90.3682 16.7847 90.3739 16.7762 90.3796C14.4638 92.0524 11.3632 92.0438 9.06002 90.3582C6.73275 88.6556 5.80752 85.7856 6.70153 83.045L9.16149 75.5078L2.71395 70.8441C0.399444 69.1699 -0.559846 66.199 0.326362 63.452C1.20902 60.7156 3.71297 58.8772 6.5575 58.8772H14.5873L17.0146 51.3905C17.8987 48.6811 20.4026 46.8647 23.2479 46.8647C26.0931 46.8647 28.5971 48.6811 29.4797 51.3834L31.9092 58.8772H39.939C42.7828 58.8772 45.2867 60.7156 46.1701 63.452C47.0563 66.199 46.097 69.1699 43.7825 70.8441L37.335 75.5078L39.7949 83.0457C40.6889 85.7856 39.7637 88.6556 37.4364 90.3582C36.2799 91.205 34.9218 91.628 33.5638 91.628ZM23.2486 78.1688C24.6371 78.1688 25.9668 78.5996 27.0921 79.4136C27.0999 79.4193 27.1077 79.425 27.1155 79.4307L32.1894 83.1644L30.2609 77.2538C29.3754 74.5402 30.3347 71.5927 32.6485 69.9192L37.8494 66.157H31.4338C28.5658 66.157 26.0619 64.3868 25.2019 61.7522L23.2486 55.7271L21.2967 61.7458C20.4353 64.3868 17.9313 66.157 15.0634 66.157H8.64778L13.8487 69.9192C16.1625 71.5927 17.1218 74.5402 16.2363 77.2538L14.3077 83.1644L19.3809 79.4307C19.3894 79.425 19.3972 79.4193 19.405 79.4136C20.5296 78.5996 21.8593 78.1688 23.2486 78.1688ZM80.0646 91.628C78.7186 91.628 77.3726 91.2121 76.221 90.3796C76.2132 90.3739 76.2054 90.3682 76.1976 90.3625L69.7494 85.6171L63.3018 90.3625C63.2933 90.3682 63.2855 90.3739 63.2777 90.3796C60.9653 92.0524 57.8639 92.0438 55.5608 90.3582C53.2342 88.6556 52.3083 85.7856 53.203 83.045L55.663 75.5078L49.2147 70.8441C46.9009 69.1699 45.9409 66.199 46.8271 63.452C47.7105 60.7156 50.2144 58.8772 53.0583 58.8772H61.0881L63.5161 51.3905C64.4002 48.6811 66.9041 46.8647 69.7494 46.8647C72.5946 46.8647 75.0985 48.6811 75.9805 51.3834L78.4099 58.8772H86.4397C88.2178 58.8772 89.8725 59.5703 91.0978 60.8294C92.3509 62.1161 93.0434 63.892 92.998 65.702C92.9483 67.7118 91.2731 69.3007 89.2757 69.2503C87.4863 69.2055 86.031 67.8711 85.7735 66.157H77.9345C75.0666 66.157 72.5627 64.3868 71.7034 61.7522L69.7494 55.7271L67.7981 61.7458C66.9361 64.3868 64.4321 66.157 61.5642 66.157H55.1486L60.3494 69.9192C62.6632 71.5927 63.6225 74.5402 62.737 77.2538L60.8085 83.1644L65.8824 79.4307L65.9058 79.4136C67.0311 78.5989 68.3608 78.1688 69.7501 78.1688C71.1386 78.1688 72.4683 78.5996 73.5936 79.4136C73.6014 79.4193 73.6092 79.425 73.617 79.4307L78.6909 83.1644L77.1924 78.5726C76.5687 76.6616 77.6096 74.6063 79.5168 73.9814C81.424 73.3565 83.4753 74.3988 84.099 76.3097L86.2964 83.045C87.1911 85.7849 86.2652 88.6556 83.9386 90.3582C82.7814 91.205 81.4233 91.628 80.0646 91.628ZM85.7345 65.52V65.525C85.7345 65.5236 85.7345 65.5222 85.7345 65.52ZM56.8138 46.3102C55.4678 46.3102 54.1219 45.8943 52.971 45.0618C52.9625 45.0561 52.9547 45.0498 52.9469 45.0441L46.4986 40.2994L40.0511 45.0441C40.0433 45.0498 40.0348 45.0561 40.0269 45.0618C37.7146 46.7339 34.6132 46.7254 32.3101 45.0398C29.9835 43.3378 29.0583 40.4671 29.9523 37.7273L32.4122 30.1893L25.9647 25.5257C23.6502 23.8515 22.6909 20.8812 23.5771 18.1335C24.4598 15.3972 26.9637 13.5587 29.8082 13.5587H37.838L40.2654 6.07202C41.1494 3.36269 43.6534 1.547 46.4986 1.547C49.3438 1.547 51.8478 3.36269 52.7297 6.06562L55.1599 13.5587H63.1897C66.0335 13.5587 68.5375 15.3979 69.4208 18.1335C70.307 20.8805 69.3478 23.8515 67.0333 25.5257L60.5857 30.1893L63.0457 37.7273C63.9397 40.4671 63.0137 43.3378 60.6872 45.0398C59.5306 45.8865 58.1726 46.3102 56.8138 46.3102ZM46.4986 32.851C47.8879 32.851 49.2168 33.2811 50.3422 34.0951C50.3507 34.1008 50.3585 34.1065 50.3663 34.1129L55.4402 37.8467L53.5109 31.9354C52.6254 29.2225 53.5854 26.2743 55.8992 24.6015L61.1001 20.8393H54.6838C51.8166 20.8393 49.3126 19.0691 48.4527 16.4337L46.4986 10.4086L44.5474 16.428C43.686 19.0691 41.1814 20.8393 38.3141 20.8393H31.8985L37.0994 24.6015C39.4125 26.2743 40.3725 29.2225 39.487 31.9354L37.5578 37.8467L42.6316 34.1129C42.6395 34.1065 42.6473 34.1008 42.6558 34.0951C43.7804 33.2811 45.1101 32.851 46.4986 32.851Z" fill="#00EBFF"/>
</g>
<defs>
<clipPath id="clip0_29_8">
<rect width="93" height="93" fill="white"/>
</clipPath>
</defs>
</svg>
