<svg width="127" height="127" viewBox="0 0 127 127" fill="none" xmlns="http://www.w3.org/2000/svg">
<g clip-path="url(#clip0_29_4)">
<path d="M121.108 86.6464C123.827 86.6464 126.031 84.4426 126.031 81.7233V57.1079C126.031 54.3886 123.827 52.1848 121.108 52.1848H113.799L125.349 32.253C125.784 31.503 126.013 30.6511 126.013 29.7847V12.3077C126.013 10.377 124.884 8.62503 123.126 7.82599L116.681 4.89617C109.534 1.64712 101.929 0 94.0772 0H31.9347C24.0837 0 16.4789 1.64712 9.3308 4.89617L2.88655 7.82599C1.12885 8.62503 0 10.377 0 12.3077V29.7847C0 30.6511 0.228847 31.503 0.663464 32.253L12.2125 52.1848H4.92309C2.20385 52.1848 0 54.3886 0 57.1079V106.339C0 117.197 8.83368 126.031 19.6924 126.031H106.339C117.197 126.031 126.031 117.197 126.031 106.339C126.031 103.62 123.827 101.416 121.108 101.416C118.389 101.416 116.185 103.62 116.185 106.339C116.185 111.768 111.768 116.185 106.339 116.185H19.6924C14.2635 116.185 9.84619 111.768 9.84619 106.339V62.031H45.7848V74.5849C45.7848 76.3406 46.7194 77.9628 48.2377 78.8435L60.5454 85.982C61.3098 86.4253 62.1627 86.6464 63.0156 86.6464C63.8685 86.6464 64.7223 86.4253 65.4858 85.982L77.7935 78.8435C79.3118 77.9628 80.2464 76.3406 80.2464 74.5849V62.031H116.185V81.7233C116.185 84.4426 118.389 86.6464 121.108 86.6464ZM112.607 13.8597L116.167 15.4779V22.4001H80.2464V9.84619H94.0772C100.514 9.84619 106.747 11.1962 112.607 13.8597ZM55.6309 9.84619H70.4002V29.4587L63.0156 33.8895L55.6309 29.4587V9.84619ZM13.4058 13.8597C19.2645 11.1962 25.4991 9.84619 31.9347 9.84619H45.7848V22.4001H9.84619V15.4779L13.4058 13.8597ZM12.0395 32.2463H45.7848C45.7848 33.9751 46.6925 35.578 48.1752 36.4674L60.4829 43.8521C61.2627 44.3203 62.1387 44.554 63.0156 44.554C63.8925 44.554 64.7685 44.3203 65.5483 43.8521L77.856 36.4674C79.3387 35.578 80.2464 33.9751 80.2464 32.2463H113.973L102.42 52.1848H23.5924L12.0395 32.2463ZM70.4002 71.7493L63.0156 76.032L55.6309 71.7493V62.031H70.4002V71.7493Z" fill="#00EBFF"/>
</g>
<defs>
<clipPath id="clip0_29_4">
<rect width="126.031" height="126.031" fill="white"/>
</clipPath>
</defs>
</svg>
