<svg width="55" height="55" viewBox="0 0 55 55" fill="none" xmlns="http://www.w3.org/2000/svg">
<path d="M42.3116 6.04458C38.3807 2.14256 33.1804 0 27.6506 0C27.6032 0 27.5558 0 27.5084 0.000419617C27.4601 0 27.4131 0 27.3653 0C21.7966 0 16.5514 2.16438 12.5818 6.105C8.62438 10.033 6.44531 15.238 6.44531 20.7614C6.44531 29.0706 11.2155 33.5471 14.6983 36.8159C17.1078 39.0768 18.584 40.5471 18.584 42.2168V48.5547C18.584 52.1088 21.4751 55 25.0293 55H29.8633C33.4174 55 36.3086 52.1088 36.3086 48.5547V42.002C36.3086 41.9189 36.3027 41.837 36.2935 41.7565C36.5029 40.4871 37.5737 39.2505 39.3869 37.5259C40.2467 36.7081 40.2807 35.3481 39.4633 34.4887C38.6454 33.6285 37.2855 33.5949 36.4257 34.4123C34.6507 36.1009 33.0133 37.8133 32.3147 39.9609H22.525C21.734 37.5267 19.7321 35.6469 17.639 33.6826C14.2485 30.5007 10.7422 27.2105 10.7422 20.7614C10.7422 16.3919 12.4706 12.27 15.6089 9.15436C18.7678 6.01898 22.9383 4.29688 27.3661 4.29688C27.4081 4.29688 27.4505 4.29729 27.4924 4.29729C27.5029 4.29771 27.5138 4.29771 27.5243 4.29729C27.5663 4.29729 27.6078 4.29688 27.6498 4.29688C32.0373 4.29688 36.1651 5.99758 39.2845 9.09393C42.315 12.1022 44.0304 16.0696 44.1445 20.309C44.113 20.4546 44.0967 20.6061 44.0967 20.761C44.0967 23.2459 43.5978 25.4049 42.5705 27.3607C42.0187 28.4114 42.4237 29.7101 43.474 30.2619C44.5243 30.8133 45.8234 30.4088 46.3752 29.3585C47.6617 26.9075 48.3222 24.2551 48.3881 21.2641C48.4267 21.1029 48.4473 20.9343 48.4473 20.761C48.4473 15.1985 46.2682 9.97219 42.3116 6.04458ZM29.8633 50.7031H25.0293C23.8447 50.7031 22.8809 49.7393 22.8809 48.5547V44.2578H32.0117V48.5547C32.0117 49.7393 31.0479 50.7031 29.8633 50.7031Z" fill="#5D62A0"/>
</svg>
