<svg width="69" height="69" viewBox="0 0 69 69" fill="none" xmlns="http://www.w3.org/2000/svg">
<path d="M53.0819 7.5832C48.1503 2.68794 41.6263 0 34.689 0C34.6295 0 34.57 0 34.5105 0.000526428C34.45 0 34.391 0 34.331 0C27.3448 0 20.7644 2.71532 15.7844 7.659C10.8197 12.5869 8.08594 19.1167 8.08594 26.0461C8.08594 36.4704 14.0704 42.0864 18.4397 46.1872C21.4625 49.0236 23.3145 50.8682 23.3145 52.9629V60.9141C23.3145 65.3729 26.9415 69 31.4004 69H37.4648C41.9237 69 45.5508 65.3729 45.5508 60.9141V52.6934C45.5508 52.5891 45.5434 52.4865 45.5318 52.3854C45.7945 50.793 47.138 49.2416 49.4127 47.0779C50.4913 46.0519 50.534 44.3458 49.5085 43.2677C48.4825 42.1885 46.7763 42.1464 45.6977 43.1719C43.4709 45.2902 41.4167 47.4386 40.5402 50.1328H28.2587C27.2663 47.079 24.7548 44.7206 22.1289 42.2564C17.8754 38.2645 13.4766 34.1368 13.4766 26.0461C13.4766 20.5644 15.6449 15.3933 19.5821 11.4846C23.545 7.55109 28.7772 5.39062 34.3321 5.39062C34.3847 5.39062 34.4379 5.39115 34.4905 5.39115C34.5037 5.39168 34.5174 5.39168 34.5305 5.39115C34.5832 5.39115 34.6353 5.39062 34.6879 5.39062C40.1923 5.39062 45.3707 7.52424 49.2842 11.4088C53.0861 15.1827 55.2381 20.1601 55.3813 25.4786C55.3418 25.6613 55.3213 25.8513 55.3213 26.0456C55.3213 29.1631 54.6954 31.8715 53.4067 34.3252C52.7144 35.6434 53.2224 37.2727 54.5401 37.965C55.8577 38.6567 57.4875 38.1492 58.1798 36.8316C59.7938 33.7567 60.6224 30.4291 60.7051 26.6768C60.7535 26.4746 60.7793 26.263 60.7793 26.0456C60.7793 19.0672 58.0456 12.5106 53.0819 7.5832ZM37.4648 63.6094H31.4004C29.9143 63.6094 28.7051 62.4002 28.7051 60.9141V55.5234H40.1602V60.9141C40.1602 62.4002 38.951 63.6094 37.4648 63.6094Z" fill="#57FE94"/>
</svg>
