<svg width="59" height="59" viewBox="0 0 59 59" fill="none" xmlns="http://www.w3.org/2000/svg">
<path d="M58.548 40.5026C58.1978 41.7261 56.9221 42.4346 55.6986 42.0844C54.4747 41.7346 53.7667 40.459 54.1164 39.2351C54.5098 37.8603 54.4783 36.4123 54.0264 35.0479L48.8373 19.3954C47.8708 16.479 45.1565 14.5195 42.0839 14.5195H16.9192C13.8462 14.5195 11.1323 16.479 10.1654 19.3954L4.97674 35.0479C4.37716 36.8574 4.51851 38.802 5.37556 40.5229C6.23126 42.2424 7.69329 43.5176 9.49158 44.1141C11.2845 44.7082 13.2083 44.5574 14.9089 43.6891C16.6127 42.819 17.8821 41.3403 18.4839 39.5254L18.8251 38.4959C19.7866 35.5957 22.4856 33.6466 25.5411 33.6466H33.4616C36.5176 33.6466 39.2166 35.5957 40.178 38.4959L40.5192 39.5254C41.4857 42.4414 44.2621 44.4782 47.2708 44.4778C47.8483 44.4778 48.4272 44.4062 48.9908 44.2649C50.2255 43.9561 51.4768 44.7064 51.7861 45.9407C52.0953 47.1754 51.3449 48.4268 50.1102 48.736C49.1807 48.9688 48.2255 49.0867 47.2712 49.0867C44.8279 49.0867 42.4737 48.3197 40.463 46.868C38.4288 45.3992 36.9353 43.3619 36.1444 40.9757L35.8032 39.9463C35.4679 38.9348 34.5271 38.2556 33.4621 38.2556H25.5415C24.4761 38.2556 23.5353 38.9348 23.1999 39.9458L22.8587 40.9757C21.8734 43.948 19.7947 46.3692 17.0047 47.7939C14.1973 49.2276 11.0144 49.4743 8.04125 48.4885C5.06902 47.5031 2.65676 45.4037 1.24964 42.5769C-0.153425 39.7586 -0.383443 36.5698 0.602348 33.5976L5.79103 17.9451C7.38405 13.139 11.8561 9.91016 16.9192 9.91016H42.0839C47.147 9.91016 51.6195 13.139 53.2126 17.9451L58.4012 33.5976C59.1462 35.8455 59.1971 38.2331 58.548 40.5026ZM40.4477 18.2066C39.1752 18.2066 38.1434 19.2383 38.1434 20.5113C38.1434 21.7838 39.1752 22.8155 40.4477 22.8155C41.7207 22.8155 42.7524 21.7838 42.7524 20.5113C42.7524 19.2383 41.7207 18.2066 40.4477 18.2066ZM40.4477 32.0338C41.7207 32.0338 42.7524 31.0021 42.7524 29.7291C42.7524 28.4566 41.7207 27.4249 40.4477 27.4249C39.1752 27.4249 38.1434 28.4566 38.1434 29.7291C38.1434 31.0016 39.1752 32.0338 40.4477 32.0338ZM35.8388 22.8155C34.5662 22.8155 33.5345 23.8472 33.5345 25.1202C33.5345 26.3932 34.5662 27.4249 35.8388 27.4249C37.1117 27.4249 38.1434 26.3932 38.1434 25.1202C38.1434 23.8472 37.1117 22.8155 35.8388 22.8155ZM45.057 27.4249C46.3296 27.4249 47.3613 26.3932 47.3613 25.1202C47.3613 23.8472 46.3296 22.8155 45.057 22.8155C43.7841 22.8155 42.7524 23.8472 42.7524 25.1202C42.7524 26.3927 43.7841 27.4249 45.057 27.4249ZM18.555 32.0338C19.828 32.0338 20.8597 31.0021 20.8597 29.7291V27.4249H23.1639C24.4369 27.4249 25.4686 26.3932 25.4686 25.1202C25.4686 23.8472 24.4369 22.8155 23.1639 22.8155H20.8597V20.5113C20.8597 19.2383 19.828 18.2066 18.555 18.2066C17.2825 18.2066 16.2508 19.2383 16.2508 20.5113V22.8155H13.9461C12.6736 22.8155 11.6414 23.8472 11.6414 25.1202C11.6414 26.3932 12.6736 27.4249 13.9461 27.4249H16.2508V29.7291C16.2508 31.0016 17.2825 32.0338 18.555 32.0338Z" fill="#57FE94"/>
</svg>
