<svg width="49" height="49" viewBox="0 0 49 49" fill="none" xmlns="http://www.w3.org/2000/svg">
<path d="M48.6246 33.6378C48.3337 34.6539 47.2743 35.2423 46.2582 34.9515C45.2417 34.661 44.6537 33.6015 44.9441 32.585C45.2709 31.4433 45.2447 30.2407 44.8694 29.1076L40.5598 16.108C39.7571 13.6859 37.5029 12.0586 34.951 12.0586H14.0516C11.4994 12.0586 9.24548 13.6859 8.44247 16.108L4.13323 29.1076C3.63527 30.6104 3.75266 32.2254 4.46445 33.6546C5.17512 35.0827 6.38935 36.1418 7.88283 36.6371C9.37184 37.1306 10.9696 37.0053 12.382 36.2842C13.797 35.5616 14.8512 34.3335 15.351 32.8262L15.6344 31.9712C16.4329 29.5625 18.6745 27.9438 21.2121 27.9438H27.7902C30.3281 27.9438 32.5697 29.5625 33.3682 31.9712L33.6516 32.8262C34.4542 35.2479 36.7601 36.9395 39.2588 36.9392C39.7384 36.9392 40.2192 36.8797 40.6872 36.7623C41.7127 36.5059 42.7519 37.1291 43.0088 38.1541C43.2656 39.1796 42.6424 40.2189 41.617 40.4757C40.845 40.669 40.0517 40.7669 39.2592 40.7669C37.23 40.7669 35.2748 40.1299 33.6048 38.9243C31.9155 37.7044 30.6751 36.0124 30.0182 34.0307L29.7349 33.1757C29.4564 32.3357 28.675 31.7716 27.7905 31.7716H21.2124C20.3276 31.7716 19.5462 32.3357 19.2677 33.1753L18.9844 34.0307C18.166 36.4992 16.4396 38.51 14.1226 39.6932C11.791 40.8839 9.14753 41.0888 6.67832 40.2701C4.20986 39.4517 2.20646 37.7082 1.03784 35.3604C-0.127421 33.0198 -0.318453 30.3715 0.500255 27.9031L4.8095 14.9035C6.13252 10.912 9.84661 8.23047 14.0516 8.23047H34.951C39.156 8.23047 42.8705 10.912 44.1935 14.9035L48.5027 27.9031C49.1214 29.77 49.1637 31.7529 48.6246 33.6378ZM33.5921 15.1207C32.5353 15.1207 31.6785 15.9776 31.6785 17.0348C31.6785 18.0916 32.5353 18.9485 33.5921 18.9485C34.6494 18.9485 35.5062 18.0916 35.5062 17.0348C35.5062 15.9776 34.6494 15.1207 33.5921 15.1207ZM33.5921 26.6043C34.6494 26.6043 35.5062 25.7475 35.5062 24.6903C35.5062 23.6334 34.6494 22.7766 33.5921 22.7766C32.5353 22.7766 31.6785 23.6334 31.6785 24.6903C31.6785 25.7471 32.5353 26.6043 33.5921 26.6043ZM29.7644 18.9485C28.7076 18.9485 27.8507 19.8053 27.8507 20.8625C27.8507 21.9198 28.7076 22.7766 29.7644 22.7766C30.8216 22.7766 31.6785 21.9198 31.6785 20.8625C31.6785 19.8053 30.8216 18.9485 29.7644 18.9485ZM37.4203 22.7766C38.4771 22.7766 39.3339 21.9198 39.3339 20.8625C39.3339 19.8053 38.4771 18.9485 37.4203 18.9485C36.363 18.9485 35.5062 19.8053 35.5062 20.8625C35.5062 21.9194 36.363 22.7766 37.4203 22.7766ZM15.4101 26.6043C16.4673 26.6043 17.3241 25.7475 17.3241 24.6903V22.7766H19.2378C20.295 22.7766 21.1519 21.9198 21.1519 20.8625C21.1519 19.8053 20.295 18.9485 19.2378 18.9485H17.3241V17.0348C17.3241 15.9776 16.4673 15.1207 15.4101 15.1207C14.3532 15.1207 13.4964 15.9776 13.4964 17.0348V18.9485H11.5823C10.5255 18.9485 9.66829 19.8053 9.66829 20.8625C9.66829 21.9198 10.5255 22.7766 11.5823 22.7766H13.4964V24.6903C13.4964 25.7471 14.3532 26.6043 15.4101 26.6043Z" fill="#D9D9D9"/>
</svg>
