<svg width="129" height="129" viewBox="0 0 129 129" fill="none" xmlns="http://www.w3.org/2000/svg">
<g clip-path="url(#clip0_29_2)">
<path d="M106.136 0.000982C106.128 0.000982 106.12 0 106.111 0C106.107 0 106.103 0 106.099 0C106.095 0 106.091 0 106.087 0C106.08 0 106.072 0.000982 106.063 0.000982C105.85 0.001964 105.638 0.00982 105.426 0.017676C105.312 0.00982 105.198 0 105.082 0H38.9658C27.876 0 18.8544 9.02163 18.8544 20.1114C18.8544 20.2901 18.8642 20.4649 18.8819 20.6387C18.9654 32.4119 21.7866 46.3209 24.7729 61.0362C26.6112 70.0952 28.5006 79.4114 29.7909 88.49H15.3349C14.4069 88.49 13.4966 88.7473 12.7051 89.2324C12.2937 89.4857 2.69362 95.5221 2.5257 108.262C2.51784 108.374 2.51392 108.487 2.51392 108.601C2.51392 119.691 11.5356 128.713 22.6253 128.713H88.5234C99.5876 128.686 108.584 119.677 108.587 108.606C108.587 105.83 106.337 103.578 103.56 103.577C103.559 103.577 103.559 103.577 103.559 103.577C100.783 103.577 98.5309 105.828 98.5309 108.604C98.529 114.144 94.0245 118.65 88.487 118.657C82.9476 118.65 78.4431 114.142 78.4431 108.601C78.4431 101.561 83.3924 98.0969 83.852 97.7895C85.8013 96.6435 86.6949 94.3643 86.1057 92.1784C85.5145 89.9836 83.472 88.49 81.1996 88.49H39.9448C38.6132 78.671 36.5913 68.7095 34.6283 59.0369C31.6999 44.6083 28.9346 30.9811 28.9346 20.1074C28.9346 20.0004 28.9248 19.8963 28.9179 19.7912C29.0878 14.3951 33.5284 10.0557 38.9658 10.0557H88.706C86.9895 13.0154 86.0016 16.4475 86.0006 20.1074C86.0006 31.9916 88.8631 46.1 91.8956 61.0362C93.5591 69.2339 95.2795 77.7115 96.5453 85.9888C96.9263 88.4762 99.0681 90.2576 101.509 90.2576C101.762 90.2576 102.018 90.2379 102.275 90.1996C105.021 89.7793 106.905 87.2144 106.486 84.4687C105.183 75.9508 103.438 67.3514 101.75 59.0359C98.8216 44.6083 96.0563 30.9811 96.0563 20.1084C96.0573 14.569 100.562 10.0626 106.1 10.0557C111.639 10.0626 116.143 14.5709 116.143 20.1114C116.143 25.4829 113.262 28.7726 111.693 30.167H110.864C108.087 30.167 105.836 32.4178 105.836 35.1949C105.836 37.972 108.087 40.2227 110.864 40.2227H113.387C114.315 40.2227 115.225 39.9654 116.016 39.4803C116.432 39.225 126.199 33.0836 126.199 20.1114C126.199 9.03833 117.203 0.027496 106.136 0.000982ZM71.087 118.657H22.6253C17.1634 118.657 12.7051 114.28 12.5725 108.85C12.5765 108.767 12.5784 108.685 12.5784 108.601C12.5784 103.23 15.4596 99.9401 17.0298 98.5457H70.6019C69.3115 101.271 68.3875 104.612 68.3875 108.601C68.3875 112.262 69.3704 115.697 71.087 118.657ZM44.245 40.2227C41.4679 40.2227 39.2171 37.972 39.2171 35.1949C39.2171 32.4178 41.4679 30.167 44.245 30.167H72.6523C75.4294 30.167 77.6801 32.4178 77.6801 35.1949C77.6801 37.972 75.4294 40.2227 72.6523 40.2227H44.245ZM75.669 57.8202H47.5131C44.736 57.8202 42.4852 55.5694 42.4852 52.7923C42.4852 50.0152 44.736 47.7645 47.5131 47.7645H75.669C78.4461 47.7645 80.6968 50.0152 80.6968 52.7923C80.6968 55.5694 78.4461 57.8202 75.669 57.8202ZM69.3842 65.3619C72.1613 65.3619 74.412 67.6127 74.412 70.3898C74.412 73.1668 72.1613 75.4176 69.3842 75.4176H51.5354C48.7583 75.4176 46.5075 73.1668 46.5075 70.3898C46.5075 67.6127 48.7583 65.3619 51.5354 65.3619H69.3842Z" fill="#00EBFF"/>
</g>
<defs>
<clipPath id="clip0_29_2">
<rect width="128.713" height="128.713" fill="white"/>
</clipPath>
</defs>
</svg>
