<svg width="85" height="85" viewBox="0 0 85 85" fill="none" xmlns="http://www.w3.org/2000/svg">
<g clip-path="url(#clip0_29_6)">
<path d="M75.6984 25.357L60.8604 5.32567C58.3896 1.99086 54.4381 0 50.288 0H34.092C29.7942 0 25.7611 2.10457 23.3019 5.62889L8.28721 27.15C6.73898 29.3689 5.92053 31.972 5.92053 34.6779V55.3105C5.92053 58.134 6.80515 60.8296 8.47737 63.1044L20.048 78.8405C22.5175 82.1984 26.4799 84.2034 30.648 84.2034H52.4845C57.3232 84.2034 61.9229 81.8765 64.7888 77.9783C65.8648 76.5149 65.5513 74.4559 64.0872 73.3799C62.6245 72.3038 60.5655 72.6173 59.4888 74.0814C57.8577 76.3003 55.2392 77.625 52.4851 77.625H30.648C30.3377 77.625 30.0306 77.5999 29.7267 77.5569L34.4716 61.5137C34.9882 59.767 36.6212 58.5477 38.4424 58.5477H45.7461C47.6284 58.5477 49.2705 59.7548 49.8319 61.5516L51.4611 66.7649C51.9012 68.1724 53.1989 69.0737 54.5993 69.0737C54.9244 69.0737 55.2552 69.0256 55.5816 68.9234C57.3155 68.3819 58.2823 66.5368 57.7401 64.8029L56.111 59.5897C54.6867 55.0317 50.5212 51.9693 45.7461 51.9693H35.5233C33.7097 51.9693 32.2341 50.4936 32.2341 48.6801V41.4439C32.2341 39.6271 30.7617 38.1547 28.9449 38.1547C27.1281 38.1547 25.6557 39.6271 25.6557 41.4439V48.6801C25.6557 51.916 27.2213 54.7927 29.6349 56.5934C28.9944 57.5121 28.4913 58.5387 28.1637 59.6481L24.13 73.2861L13.7773 59.2074C12.9409 58.0697 12.4989 56.7219 12.4989 55.3105V34.6779C12.4989 33.3249 12.9081 32.0234 13.6823 30.9139L28.6976 9.39284C29.9265 7.63068 31.9437 6.57839 34.0926 6.57839H50.288C52.3631 6.57839 54.3392 7.57414 55.5745 9.24122L59.5293 14.5804L54.3109 22.54C52.762 24.9028 50.1506 26.3136 47.3252 26.3136H34.2834C32.5714 26.3136 30.9904 25.4572 30.0556 24.0233C29.0631 22.5021 27.0247 22.0729 25.5034 23.0648C23.9822 24.0574 23.5531 26.0951 24.545 27.617C26.6996 30.9204 30.3396 32.8919 34.2834 32.8919H48.6801C50.4936 32.8919 51.9693 34.3676 51.9693 36.1811V44.7331C51.9693 46.5498 53.4417 48.0222 55.2585 48.0222C57.0752 48.0222 58.5477 46.5498 58.5477 44.7331V36.1811C58.5477 33.7997 57.6997 31.6129 56.2902 29.9066C57.6521 28.8826 58.8477 27.6183 59.8126 26.1465L63.7018 20.2138L70.4119 29.2726C71.2451 30.3974 71.7044 31.7883 71.7044 33.1881V55.3105C71.7044 56.7226 71.2624 58.0697 70.426 59.2074L68.8367 61.3685C67.7606 62.832 68.0748 64.8909 69.5382 65.967C71.0016 67.043 73.0606 66.7289 74.1366 65.2655L75.7253 63.1044C77.3982 60.8296 78.2828 58.134 78.2828 55.3105V33.1881C78.2828 30.3884 77.3648 27.6068 75.6984 25.357Z" fill="#00EBFF"/>
</g>
<defs>
<clipPath id="clip0_29_6">
<rect width="84.2034" height="84.2034" fill="white"/>
</clipPath>
</defs>
</svg>
