<svg width="38" height="38" viewBox="0 0 38 38" fill="none" xmlns="http://www.w3.org/2000/svg">
<g clip-path="url(#clip0_110_614)">
<path d="M36.5156 26.125C37.3355 26.125 38 25.4605 38 24.6406V5.9375C38 2.66347 35.3365 0 32.0625 0H5.9375C2.66347 0 0 2.66347 0 5.9375V32.0625C0 35.3365 2.66347 38 5.9375 38H32.0625C35.3365 38 38 35.3365 38 32.0625C38 31.2426 37.3355 30.5781 36.5156 30.5781C35.6957 30.5781 35.0312 31.2426 35.0312 32.0625C35.0312 33.6994 33.6994 35.0312 32.0625 35.0312H20.4844V31.83C21.2289 31.997 21.9267 32.0935 22.4271 32.0935C24.7151 32.0935 26.5767 30.1485 26.5767 27.7578C26.5767 25.3672 24.7151 23.4221 22.4271 23.4221C21.9267 23.4221 21.2289 23.5186 20.4844 23.6856V20.4844H24.6429C25.3506 20.4844 26 20.1597 26.4245 19.5935C26.8489 19.0275 26.9785 18.3141 26.7805 17.6354C26.4967 16.6627 26.3909 15.8541 26.3909 15.5729C26.3909 14.9217 27.004 14.3921 27.7578 14.3921C28.5116 14.3921 29.1248 14.9217 29.1248 15.5729C29.1248 15.8541 29.019 16.6627 28.7351 17.6354C28.5371 18.3141 28.6667 19.0275 29.0911 19.5935C29.5156 20.1597 30.165 20.4844 30.8727 20.4844H35.0312V24.6406C35.0312 25.4605 35.6957 26.125 36.5156 26.125ZM5.9375 2.96875H17.5156V6.17001C16.7711 6.00302 16.0733 5.90648 15.5729 5.90648C13.2849 5.90648 11.4233 7.85153 11.4233 10.2422C11.4233 12.6328 13.2849 14.5779 15.5729 14.5779C16.0733 14.5779 16.7711 14.4814 17.5156 14.3144V17.5156H13.3571C12.6494 17.5156 12 17.8403 11.5755 18.4065C11.1511 18.9725 11.0215 19.6859 11.2195 20.3646C11.5033 21.3373 11.6091 22.1459 11.6091 22.4271C11.6091 23.0783 10.996 23.6079 10.2422 23.6079C9.4884 23.6079 8.87523 23.0783 8.87523 22.4271C8.87523 22.1459 8.98105 21.3373 9.26488 20.3646C9.46289 19.6859 9.3333 18.9725 8.90886 18.4065C8.48442 17.8403 7.83501 17.5156 7.12732 17.5156H2.96875V5.9375C2.96875 4.30063 4.30063 2.96875 5.9375 2.96875ZM18.4065 26.4245C18.9725 26.8489 19.6862 26.9785 20.3646 26.7805C21.3373 26.4967 22.1459 26.3909 22.4271 26.3909C23.0783 26.3909 23.6079 27.004 23.6079 27.7578C23.6079 28.5116 23.0783 29.1248 22.4271 29.1248C22.1459 29.1248 21.3373 29.019 20.3646 28.7351C19.6859 28.5371 18.9725 28.6667 18.4065 29.0911C17.8403 29.5156 17.5156 30.165 17.5156 30.8727V35.0312H5.9375C4.30063 35.0312 2.96875 33.6994 2.96875 32.0625V20.4844H6.17001C6.00302 21.2289 5.90648 21.9267 5.90648 22.4271C5.90648 24.7151 7.85153 26.5767 10.2422 26.5767C12.6328 26.5767 14.5779 24.7151 14.5779 22.4271C14.5779 21.9267 14.4814 21.2289 14.3144 20.4844H17.5156V24.6429C17.5156 25.3506 17.8403 26 18.4065 26.4245ZM31.83 17.5156C31.997 16.7711 32.0935 16.0733 32.0935 15.5729C32.0935 13.2849 30.1485 11.4233 27.7578 11.4233C25.3672 11.4233 23.4221 13.2849 23.4221 15.5729C23.4221 16.0733 23.5186 16.7711 23.6856 17.5156H20.4844V13.3571C20.4844 12.6494 20.1597 12 19.5935 11.5755C19.0275 11.1511 18.3138 11.0215 17.6354 11.2195C16.6627 11.5033 15.8541 11.6091 15.5729 11.6091C14.9217 11.6091 14.3921 10.996 14.3921 10.2422C14.3921 9.48869 14.9217 8.87523 15.5729 8.87523C15.8541 8.87523 16.6627 8.98105 17.6354 9.26517C18.3138 9.46318 19.0275 9.3333 19.5935 8.90915C20.1597 8.48442 20.4844 7.83501 20.4844 7.12761V2.96875H32.0625C33.6994 2.96875 35.0312 4.30063 35.0312 5.9375V17.5156H31.83Z" fill="#57FE94"/>
</g>
<defs>
<clipPath id="clip0_110_614">
<rect width="38" height="38" fill="white"/>
</clipPath>
</defs>
</svg>
