<svg width="55" height="55" viewBox="0 0 55 55" fill="none" xmlns="http://www.w3.org/2000/svg">
<g clip-path="url(#clip0_113_618)">
<path d="M52.8516 25.3516H50.713C50.2217 19.9648 47.8866 14.965 44.0145 11.0929C40.1167 7.19501 35.0761 4.85482 29.6484 4.38485V2.14844C29.6484 0.961856 28.6866 0 27.5 0C26.3134 0 25.3516 0.961856 25.3516 2.14844V4.40451C20.0057 4.91691 15.0467 7.24657 11.2003 11.0929C7.32821 14.965 4.99318 19.9648 4.50184 25.3516H2.14844C0.961856 25.3516 0 26.3134 0 27.5C0 28.6866 0.961856 29.6484 2.14844 29.6484H4.50184C4.99318 35.0352 7.32821 40.035 11.2003 43.9071C15.0467 47.7534 20.0057 50.083 25.3516 50.5955V52.8516C25.3516 54.0381 26.3134 55 27.5 55C28.6866 55 29.6484 54.0381 29.6484 52.8516V50.613C32.8355 50.3314 35.9451 49.3942 38.7434 47.8606C39.784 47.2904 40.1653 45.9846 39.5951 44.9441C39.0249 43.9034 37.719 43.5223 36.6786 44.0925C34.5111 45.2801 32.1132 46.0285 29.6485 46.2957V41.8945C29.6485 40.708 28.6867 39.7461 27.5001 39.7461C26.3135 39.7461 25.3517 40.708 25.3517 41.8945V46.2724C16.6901 45.238 9.80826 38.3245 8.82256 29.6484H13.1055C14.2921 29.6484 15.2539 28.6866 15.2539 27.5C15.2539 26.3134 14.2921 25.3516 13.1055 25.3516H8.82256C9.80826 16.6755 16.6901 9.76196 25.3516 8.7276V13.1055C25.3516 14.2921 26.3134 15.2539 27.5 15.2539C28.6866 15.2539 29.6484 14.2921 29.6484 13.1055V8.70321C38.4107 9.64799 45.3984 16.6039 46.3923 25.3516H41.8945C40.708 25.3516 39.7461 26.3134 39.7461 27.5C39.7461 28.6866 40.708 29.6484 41.8945 29.6484H46.3891C46.0832 32.2794 45.2189 34.8361 43.8447 37.1425C43.2374 38.1618 43.5713 39.4805 44.5906 40.0878C45.6097 40.6951 46.9285 40.3613 47.536 39.3418C49.3074 36.3687 50.3882 33.0541 50.7094 29.6483H52.8516C54.0381 29.6483 55 28.6865 55 27.4999C55 26.3133 54.0381 25.3516 52.8516 25.3516Z" fill="#57FE94"/>
<path d="M27.5 29.6484C28.6865 29.6484 29.6484 28.6865 29.6484 27.5C29.6484 26.3135 28.6865 25.3516 27.5 25.3516C26.3135 25.3516 25.3516 26.3135 25.3516 27.5C25.3516 28.6865 26.3135 29.6484 27.5 29.6484Z" fill="#57FE94"/>
</g>
<defs>
<clipPath id="clip0_113_618">
<rect width="55" height="55" fill="white"/>
</clipPath>
</defs>
</svg>
