<svg width="46" height="46" viewBox="0 0 46 46" fill="none" xmlns="http://www.w3.org/2000/svg">
<g clip-path="url(#clip0_113_642)">
<path d="M44.2031 21.2031H42.4145C42.0036 16.6978 40.0506 12.5162 36.8121 9.27771C33.5521 6.01764 29.3364 4.0604 24.7969 3.66733V1.79688C24.7969 0.804461 23.9924 0 23 0C22.0076 0 21.2031 0.804461 21.2031 1.79688V3.68377C16.732 4.11233 12.5845 6.06077 9.36756 9.27771C6.12905 12.5162 4.17612 16.6978 3.76517 21.2031H1.79688C0.804461 21.2031 0 22.0076 0 23C0 23.9924 0.804461 24.7969 1.79688 24.7969H3.76517C4.17612 29.3022 6.12905 33.4838 9.36756 36.7223C12.5845 39.9392 16.732 41.8876 21.2031 42.3162V44.2031C21.2031 45.1955 22.0076 46 23 46C23.9924 46 24.7969 45.1955 24.7969 44.2031V42.3309C27.4625 42.0954 30.0632 41.3115 32.4036 40.0289C33.2739 39.552 33.5928 38.4599 33.1159 37.5896C32.639 36.7192 31.5468 36.4005 30.6766 36.8774C28.8638 37.8707 26.8583 38.4965 24.797 38.7201V35.0391C24.797 34.0466 23.9925 33.2422 23.0001 33.2422C22.0077 33.2422 21.2032 34.0466 21.2032 35.0391V38.7006C13.959 37.8354 8.20327 32.0532 7.37887 24.7969H10.9609C11.9534 24.7969 12.7578 23.9924 12.7578 23C12.7578 22.0076 11.9534 21.2031 10.9609 21.2031H7.37887C8.20327 13.9468 13.959 8.16455 21.2031 7.29945V10.9609C21.2031 11.9534 22.0076 12.7578 23 12.7578C23.9924 12.7578 24.7969 11.9534 24.7969 10.9609V7.27905C32.1253 8.06923 37.9696 13.8869 38.8008 21.2031H35.0391C34.0466 21.2031 33.2422 22.0076 33.2422 23C33.2422 23.9924 34.0466 24.7969 35.0391 24.7969H38.7981C38.5423 26.9973 37.8195 29.1356 36.6701 31.0646C36.1622 31.9172 36.4414 33.0201 37.294 33.528C38.1463 34.0359 39.2493 33.7567 39.7574 32.904C41.2389 30.4175 42.1428 27.6453 42.4115 24.7968H44.2031C45.1955 24.7968 46 23.9923 46 22.9999C46 22.0075 45.1955 21.2031 44.2031 21.2031Z" fill="#D9D9D9"/>
<path d="M23 24.7969C23.9924 24.7969 24.7969 23.9924 24.7969 23C24.7969 22.0076 23.9924 21.2031 23 21.2031C22.0076 21.2031 21.2031 22.0076 21.2031 23C21.2031 23.9924 22.0076 24.7969 23 24.7969Z" fill="#D9D9D9"/>
</g>
<defs>
<clipPath id="clip0_113_642">
<rect width="46" height="46" fill="white"/>
</clipPath>
</defs>
</svg>
