<svg width="30" height="30" viewBox="0 0 30 30" fill="none" xmlns="http://www.w3.org/2000/svg">
<path d="M29.12 7.71L22.29 0.88C21.7279 0.31723 20.9654 0.000700208 20.17 0H3C2.20435 0 1.44129 0.31607 0.87868 0.87868C0.31607 1.44129 0 2.20435 0 3V27C0 27.7956 0.31607 28.5587 0.87868 29.1213C1.44129 29.6839 2.20435 30 3 30H27C27.7956 30 28.5587 29.6839 29.1213 29.1213C29.6839 28.5587 30 27.7956 30 27V9.83C29.9993 9.03462 29.6828 8.27207 29.12 7.71ZM23 28H7V17C7 16.7348 7.10536 16.4804 7.29289 16.2929C7.48043 16.1054 7.73478 16 8 16H22C22.2652 16 22.5196 16.1054 22.7071 16.2929C22.8946 16.4804 23 16.7348 23 17V28ZM28 27C28 27.2652 27.8946 27.5196 27.7071 27.7071C27.5196 27.8946 27.2652 28 27 28H25V17C25 16.2044 24.6839 15.4413 24.1213 14.8787C23.5587 14.3161 22.7956 14 22 14H8C7.20435 14 6.44129 14.3161 5.87868 14.8787C5.31607 15.4413 5 16.2044 5 17V28H3C2.73478 28 2.48043 27.8946 2.29289 27.7071C2.10536 27.5196 2 27.2652 2 27V3C2 2.73478 2.10536 2.48043 2.29289 2.29289C2.48043 2.10536 2.73478 2 3 2H20.17C20.4348 2.00368 20.6884 2.10727 20.88 2.29L27.71 9.12C27.8927 9.31163 27.9963 9.56523 28 9.83V27Z" fill="#00042D"/>
</svg>
