<svg width="32" height="32" viewBox="0 0 32 32" fill="none" xmlns="http://www.w3.org/2000/svg">
<g clip-path="url(#clip0_53_177)">
<path fill-rule="evenodd" clip-rule="evenodd" d="M4.24853 31.0982C5.68248 32.0681 7.48752 32.2691 9.07681 31.636C9.71917 31.3801 10.032 30.6528 9.77568 30.0117C9.51932 29.3706 8.7906 29.0584 8.14823 29.3142C7.33145 29.6397 6.39897 29.533 5.65337 29.0288C4.90753 28.5244 4.47969 27.7168 4.47969 26.8132V5.19165C4.47969 4.20606 4.9951 3.33081 5.85836 2.8501C6.72309 2.3689 7.74217 2.3916 8.58463 2.91065L26.1223 13.7214C26.9207 14.2136 27.3975 15.0664 27.3975 16.0024C27.3975 16.9385 26.9207 17.7913 26.1223 18.2835L13.1517 26.2788C12.5631 26.6416 12.3809 27.4119 12.7444 27.999C13.1079 28.5864 13.8794 28.7686 14.4679 28.4058L27.4383 20.4102C28.9812 19.4592 29.9021 17.8115 29.9021 16.0024C29.9021 14.1934 28.9812 12.5457 27.4383 11.5947L9.90068 0.783937C8.2747 -0.21826 6.30748 -0.261961 4.63845 0.666994C2.97064 1.59546 1.97504 3.28687 1.97504 5.19165V26.8132C1.97504 28.5593 2.80381 30.1211 4.24853 31.0982Z" fill="#00042D"/>
<path d="M10.4424 8.69132C10.4333 8.53976 10.4283 8.47066 10.4283 8.50319C10.4283 8.56713 10.4331 8.62996 10.4424 8.69132Z" fill="#00042D"/>
</g>
<defs>
<clipPath id="clip0_53_177">
<rect width="32" height="32" fill="white" transform="matrix(0 1 -1 0 32 0)"/>
</clipPath>
</defs>
</svg>
