<svg width="431" height="508" viewBox="0 0 431 508" fill="none" xmlns="http://www.w3.org/2000/svg">
<path d="M416.3 60H280.3V35.3C280.3 15.8 264.5 0 245 0H185.4C165.9 0 150.1 15.8 150.1 35.3V60H14.1C6.3 60 0 66.3 0 74.1C0 81.9 6.3 88.2 14.1 88.2H28.3L56.1 455.8C58.3 485.1 83 508 112.4 508H318C347.4 508 372.1 485.1 374.3 455.8L402.1 88.2H416.3C424.1 88.2 430.4 81.9 430.4 74.1C430.4 66.3 424.1 60 416.3 60ZM185.4 28.2H245C248.9 28.2 252.1 31.4 252.1 35.3V60H178.4V35.3H178.3C178.3 31.4 181.5 28.2 185.4 28.2ZM346.1 453.7C345 468.3 332.6 479.8 318 479.8H112.4C97.7 479.8 85.4 468.3 84.3 453.7L56.6 88.2H373.7L346.1 453.7Z" fill="white"/>
</svg>
